# xmcd CD database file
# Copyright (C) 1993-1996 Ti Kan
#
# Track frame offsets:
# 183
# 10795
# 24165
# 36518
# 48980
# 58923
# 70018
# 82985
# 98915
# 108955
# 119345
# 132045
# 142945
# 154785
#
# Disc length: 2212 seconds
#
# Revision: 0
# Processed by: cddbd v1.5.2PL0 Copyright (c) Steve Scherf et al.
# Submitted via: inCDius 1.1b5
#
DISCID=ad08a20e
DTITLE=Johnny Russell - The Country Store Collection
DYEAR=1988
DGENRE=Country
TTITLE0=Act Naturally
TTITLE1=Catfish John
TTITLE2=Red Necks, White Socks, Blue Ribbon Beer
TTITLE3=All I Have To Offer You Is Me
TTITLE4=Making Plans
TTITLE5=Blue Eyes Crying In The Rain
TTITLE6=Good Hearted Woman
TTITLE7=Lukenbach Texas
TTITLE8=Busted
TTITLE9=Jamalaya
TTITLE10=Kawliga
TTITLE11=Today I Started Loving You Again
TTITLE12=Working Man Blues
TTITLE13=King Of The Road
EXTD=
EXTT0=
EXTT1=
EXTT2=
EXTT3=
EXTT4=
EXTT5=
EXTT6=
EXTT7=
EXTT8=
EXTT9=
EXTT10=
EXTT11=
EXTT12=
EXTT13=
PLAYORDER=
